<?xml version="1.0" encoding="UTF-8" standalone="no"?><!DOCTYPE svg PUBLIC "-//W3C//DTD SVG 1.1//EN" "http://www.w3.org/Graphics/SVG/1.1/DTD/svg11.dtd"><svg width="100%" height="100%" viewBox="0 0 94 94" version="1.1" xmlns="http://www.w3.org/2000/svg" xmlns:xlink="http://www.w3.org/1999/xlink" xml:space="preserve" xmlns:serif="http://www.serif.com/" style="fill-rule:evenodd;clip-rule:evenodd;stroke-linejoin:round;stroke-miterlimit:2;"><rect id="chess" x="0.304" y="0" width="93.3" height="93.3" style="fill:none;"/><clipPath id="_clip1"><rect x="0.304" y="0" width="93.3" height="93.3"/></clipPath><g clip-path="url(#_clip1)"><g><path d="M59.453,33.337c-0.273,-0.068 -0.528,-0.173 -0.788,-0.266l-1.476,2.581c-2.205,3.863 -3.476,8.196 -3.727,12.625l20.792,0c-0.177,-4.477 -1.064,-8.856 -2.704,-13.038l-12.097,-1.902Z" style="fill-rule:nonzero;"/><path d="M48.582,53.107l0,4.828l28.968,-0l-0,-4.828c-0,-0.887 -0.721,-1.61 -1.61,-1.61l-25.748,0c-0.889,0 -1.61,0.723 -1.61,1.61Z" style="fill-rule:nonzero;"/><path d="M28.589,43.102c0.421,0.545 0.682,1.218 0.682,1.958l-0,3.219c-0,1.08 -0.539,2.032 -1.358,2.616l2.888,13.477l8.126,-0l-0,-11.265c-0,-0.865 0.246,-1.664 0.645,-2.368c-1.35,-0.856 -2.255,-2.356 -2.255,-4.07c0,-1.24 0.485,-2.362 1.256,-3.218c-0.419,-0.465 -0.746,-1.008 -0.96,-1.609l-8.576,-0l-0.448,1.26Z" style="fill-rule:nonzero;"/><path d="M42.145,53.107c0,0.886 0.721,1.609 1.609,1.609l1.61,-0l-0,-1.609c-0,-0.565 0.098,-1.106 0.275,-1.61l-1.885,0c-0.888,0 -1.609,0.723 -1.609,1.61Z" style="fill-rule:nonzero;"/><path d="M42.145,48.279l8.1,-0c0.054,-1.08 0.167,-2.153 0.331,-3.219l-8.431,0c-0.888,0 -1.609,0.723 -1.609,1.609c-0,0.887 0.721,1.61 1.609,1.61Z" style="fill-rule:nonzero;"/><path d="M42.145,41.842l9.085,-0c0.284,-1.091 0.637,-2.163 1.036,-3.219l-10.121,0c-0.888,0 -1.609,0.723 -1.609,1.609c-0,0.887 0.721,1.61 1.609,1.61Z" style="fill-rule:nonzero;"/><path d="M50.192,35.404l3.492,0c0.23,-0.452 0.46,-0.906 0.713,-1.347l1.068,-1.871l-5.273,-0c-0.889,-0 -1.61,0.722 -1.61,1.609c0,0.887 0.721,1.609 1.61,1.609Z" style="fill-rule:nonzero;"/><path d="M74.094,16.093l3.456,-0l-0,-1.609c-0,-0.71 -0.07,-1.402 -0.168,-2.084l-3.862,1.545c0.249,0.695 0.443,1.411 0.574,2.148Z" style="fill-rule:nonzero;"/><path d="M51.801,20.921l3.598,-0l1.991,0.996c0.805,0.401 1.703,0.613 2.601,0.613l11.121,0l0,-4.068c0,-3.825 -2.125,-7.266 -5.547,-8.977l-0.595,-0.299l-1.904,-5.707l-1.886,5.66l-10.177,5.816c-0.501,0.285 -0.811,0.821 -0.811,1.397l-0,2.96c-0,0.886 0.721,1.609 1.609,1.609Zm9.656,-8.047c0.888,0 1.609,0.721 1.609,1.61c-0,0.888 -0.721,1.609 -1.609,1.609c-0.889,-0 -1.61,-0.721 -1.61,-1.609c0,-0.889 0.721,-1.61 1.61,-1.61Z" style="fill-rule:nonzero;"/><path d="M76.722,22.53c0.279,0 0.552,0.037 0.828,0.061l-0,-3.279l-3.219,-0l0,3.218l2.391,0Z" style="fill-rule:nonzero;"/><path d="M60.834,0l-4.205,0l-0,8.032l1.886,-1.078l2.319,-6.954Z" style="fill-rule:nonzero;"/><path d="M72.056,11.065l4.504,-1.802c-0.766,-1.973 -1.947,-3.738 -3.444,-5.185l-2.884,4.809c0.694,0.658 1.296,1.393 1.824,2.178Z" style="fill-rule:nonzero;"/><path d="M67.641,6.951l2.907,-4.844c-1.561,-0.948 -3.311,-1.605 -5.182,-1.906l2.243,6.729c0.01,0.004 0.021,0.014 0.032,0.021Z" style="fill-rule:nonzero;"/><path d="M38.927,67.59l-7.435,0l0.735,3.433c2.004,0.587 3.481,2.422 3.481,4.614l0,4.828c0,1.775 -1.444,3.218 -3.219,3.218l-25.748,0c-1.775,0 -3.219,-1.443 -3.219,-3.218l0,-4.828c0,-2.192 1.477,-4.027 3.481,-4.614l0.736,-3.433l-7.435,0l-0,19.312l38.623,-0l-0,-19.312Z" style="fill-rule:nonzero;"/><rect x="0.304" y="90.12" width="80.465" height="3.219"/><path d="M77.55,61.153l-28.968,0c-1.775,0 -3.218,-1.443 -3.218,-3.218l-1.61,-0c-0.566,-0 -1.103,-0.116 -1.609,-0.297l0,6.734l38.623,-0l0,-6.437c0,1.775 -1.443,3.218 -3.218,3.218Z" style="fill-rule:nonzero;"/><rect x="42.145" y="67.59" width="38.623" height="19.312"/><path d="M76.722,25.749l-20.093,-0c-0,2.103 1.426,3.926 3.463,4.437l13.578,2.129l0.391,0.587c1.838,2.755 4.636,4.63 7.884,5.28l2.357,0.472l-0.632,3.155l-2.358,-0.471c-1.822,-0.364 -3.524,-1.045 -5.066,-1.983c0.755,3.008 1.177,6.087 1.27,9.21c1.888,0.658 3.252,2.435 3.252,4.542l0,1.387c1.751,-0.319 3.496,-0.911 5.208,-1.767l1.229,-0.615l0,-20.674l-6.912,-4.608c-1.06,-0.708 -2.294,-1.081 -3.571,-1.081Z" style="fill-rule:nonzero;"/><rect x="13.178" y="45.06" width="12.874" height="3.219"/><rect x="90.424" y="28.967" width="3.219" height="25.749"/><path d="M28.889,70.809l-4.137,-19.312l-10.274,0l-4.137,19.312l18.548,-0Z" style="fill-rule:nonzero;"/><path d="M6.741,75.637l-0,4.828l25.75,-0l-0.002,-4.828c0,-0.887 -0.721,-1.61 -1.609,-1.61l-22.53,0c-0.888,0 -1.609,0.723 -1.609,1.61Z" style="fill-rule:nonzero;"/><path d="M25.619,41.842l4.588,-12.875l-21.184,0l4.586,12.875l12.01,-0Z" style="fill-rule:nonzero;"/><path d="M34.099,19.312l-3.219,-0l0,3.218l-9.656,0l0,-3.218l-3.218,-0l-0,3.218l-9.656,0l0,-3.218l-3.219,-0l0,6.437l28.968,-0l-0,-6.437Z" style="fill-rule:nonzero;"/><path d="M11.318,50.895c-0.82,-0.584 -1.359,-1.536 -1.359,-2.616l0,-3.219c0,-0.74 0.261,-1.413 0.683,-1.957l-0.449,-1.261l-9.889,-0l-0,22.53l8.125,-0l2.889,-13.477Z" style="fill-rule:nonzero;"/></g></g></svg>