<?xml version="1.0" encoding="UTF-8" standalone="no"?><!DOCTYPE svg PUBLIC "-//W3C//DTD SVG 1.1//EN" "http://www.w3.org/Graphics/SVG/1.1/DTD/svg11.dtd"><svg width="100%" height="100%" viewBox="0 0 87 87" version="1.1" xmlns="http://www.w3.org/2000/svg" xmlns:xlink="http://www.w3.org/1999/xlink" xml:space="preserve" xmlns:serif="http://www.serif.com/" style="fill-rule:evenodd;clip-rule:evenodd;stroke-linejoin:round;stroke-miterlimit:2;"><rect id="engine" x="0.536" y="0" width="85.5" height="86.3" style="fill:none;"/><clipPath id="_clip1"><rect x="0.536" y="0" width="85.5" height="86.3"/></clipPath><g clip-path="url(#_clip1)"><g><path d="M83.754,29.52l1.523,-1.523c0.52,-0.521 0.807,-1.214 0.807,-1.954c0,-0.739 -0.287,-1.433 -0.807,-1.953l-2.97,-2.969l0.306,-0.306c0.841,-0.841 0.841,-2.21 0,-3.051l-3.593,-3.593c-0.841,-0.841 -2.21,-0.841 -3.052,0l-0.306,0.306l-2.969,-2.969c-1.077,-1.077 -2.829,-1.077 -3.906,0l-1.523,1.523l-2.029,-2.029c-0.339,-0.339 -0.89,-0.339 -1.229,0l-1.67,1.67c-0.163,0.164 -0.255,0.384 -0.255,0.615c0,0.231 0.092,0.452 0.255,0.615l1.004,1.004l-0.718,0.718c-0.332,-0.19 -0.763,-0.147 -1.046,0.136l-3.683,3.683c-0.604,-1.849 -2.14,-2.907 -4.347,-2.907l-20.474,0c-2.207,0 -3.743,1.058 -4.346,2.907l-3.683,-3.683c-0.284,-0.284 -0.713,-0.327 -1.045,-0.136l-0.718,-0.718l1.004,-1.004c0.164,-0.163 0.255,-0.384 0.255,-0.615c0,-0.23 -0.092,-0.451 -0.255,-0.615l-1.67,-1.67c-0.339,-0.339 -0.89,-0.339 -1.229,0l-2.03,2.03l-1.523,-1.523c-1.077,-1.077 -2.829,-1.077 -3.906,0l-2.969,2.97l-0.306,-0.306c-0.841,-0.841 -2.21,-0.841 -3.052,0l-3.592,3.593c-0.407,0.406 -0.63,0.948 -0.63,1.526c0,0.577 0.224,1.119 0.63,1.526l0.305,0.306l-2.969,2.969c-1.077,1.077 -1.077,2.83 0,3.907l1.522,1.522l-2.031,2.032c-0.163,0.163 -0.254,0.384 -0.254,0.615c0,0.23 0.091,0.452 0.254,0.615l1.67,1.67c0.17,0.17 0.392,0.254 0.615,0.254c0.222,0 0.445,-0.084 0.615,-0.254l1.005,-1.005l0.718,0.718c-0.075,0.13 -0.119,0.278 -0.119,0.432c0,0.23 0.091,0.452 0.254,0.615l10.246,10.247l-12.412,16.088c-0.211,0.278 -2.04,2.766 -1.104,4.656c0.552,1.115 1.859,1.68 3.885,1.68l19.314,0c0.801,2.276 1.745,4.155 2.809,5.591c0.164,0.221 0.423,0.352 0.698,0.352l28.562,0c0.275,0 0.534,-0.131 0.698,-0.352c1.064,-1.436 2.008,-3.314 2.81,-5.591l19.314,0c2.026,0 3.333,-0.564 3.885,-1.68c0.937,-1.891 -0.893,-4.378 -1.106,-4.659l-12.41,-16.085l10.247,-10.247c0.163,-0.163 0.254,-0.384 0.254,-0.615c0,-0.153 -0.044,-0.301 -0.119,-0.432l0.718,-0.718l1.007,1.006c0.163,0.163 0.384,0.254 0.614,0.254c0.23,0 0.452,-0.091 0.614,-0.254l1.67,-1.67c0.34,-0.34 0.34,-0.89 0,-1.229l-2.032,-2.036Zm-6.556,-14.12c0.16,-0.161 0.433,-0.161 0.593,-0l3.593,3.592c0.161,0.161 0.161,0.433 0,0.593l-0.306,0.306l-4.186,-4.186l0.306,-0.305Zm-7.181,-2.663c0.399,-0.399 1.048,-0.399 1.447,-0l12.583,12.583c0.191,0.192 0.297,0.449 0.297,0.724c0,0.275 -0.105,0.532 -0.297,0.724l-1.523,1.523l-14.03,-14.03l1.523,-1.524Zm-64.781,6.849c-0.161,-0.161 -0.161,-0.432 0,-0.593l3.593,-3.593c0.161,-0.161 0.432,-0.161 0.593,0l0.306,0.306l-4.186,4.186l-0.306,-0.306Zm-2.663,7.181c-0.399,-0.399 -0.399,-1.049 0,-1.448l12.583,-12.583c0.399,-0.399 1.048,-0.399 1.448,-0l1.522,1.523l-14.03,14.03l-1.523,-1.522Zm0.547,5.839l-0.441,-0.441l19.321,-19.321l0.441,0.441l-1.002,1.003c0,-0 -0.001,-0 -0.002,0.001c0,-0 -0.001,0.001 -0.001,0.002l-17.308,17.307c-0.001,-0 -0.001,0.001 -0.002,0.002c-0.001,-0 -0.001,0.001 -0.002,0.002l-1.004,1.004Zm18.931,-16.473l0.694,0.694l-16.082,16.082l-0.694,-0.694l16.082,-16.082Zm2.378,1.469l4.415,4.416c-3.396,4.396 -9.675,14.154 -6.612,22.961c-0.008,0.021 -0.012,0.045 -0.019,0.066c-0.009,0.03 -0.02,0.06 -0.025,0.091c-0.004,0.021 -0.004,0.043 -0.006,0.065c-0.004,0.035 -0.009,0.07 -0.008,0.105l0,0.011c0.029,1.154 0.083,2.547 0.176,4.092l-4.739,-4.642l-10.172,-10.173l16.99,-16.992Zm-20.547,47.829c-0.364,-0.733 0.468,-2.226 0.925,-2.828l12.279,-15.916l5.451,5.34c0.37,4.419 1.078,9.603 2.423,14.115l-18.752,0c-1.272,0 -2.098,-0.253 -2.326,-0.711Zm53.261,6.653l-27.666,0c-0.944,-1.372 -1.787,-3.168 -2.508,-5.347c-2.386,-7.187 -2.926,-16.905 -3.047,-21.109c0.004,-0.005 0.007,-0.011 0.01,-0.016c0.016,-0.023 0.028,-0.048 0.042,-0.072c0.013,-0.025 0.028,-0.049 0.039,-0.074c0.011,-0.027 0.019,-0.055 0.027,-0.083c0.008,-0.025 0.018,-0.051 0.023,-0.078c0.006,-0.026 0.007,-0.054 0.011,-0.081c0.003,-0.029 0.008,-0.057 0.008,-0.086c0,-0.028 -0.003,-0.056 -0.006,-0.084c-0.002,-0.027 -0.003,-0.056 -0.008,-0.083c-0.007,-0.035 -0.018,-0.069 -0.029,-0.104c-0.006,-0.018 -0.008,-0.036 -0.015,-0.055c-3.294,-8.517 3.561,-18.447 6.661,-22.321c0.008,-0.01 0.013,-0.022 0.021,-0.033c0.019,-0.025 0.035,-0.05 0.05,-0.077c0.014,-0.024 0.027,-0.048 0.038,-0.073c0.012,-0.026 0.022,-0.053 0.032,-0.081c0.009,-0.026 0.018,-0.053 0.024,-0.08c0.006,-0.027 0.011,-0.054 0.015,-0.082c0.004,-0.028 0.007,-0.056 0.008,-0.083c0.001,-0.027 0,-0.055 -0.001,-0.083c-0.002,-0.027 -0.004,-0.055 -0.008,-0.083c-0.004,-0.028 -0.01,-0.055 -0.018,-0.082c-0.006,-0.027 -0.014,-0.053 -0.023,-0.079c-0.01,-0.026 -0.021,-0.052 -0.033,-0.078c-0.012,-0.026 -0.025,-0.051 -0.04,-0.076c-0.014,-0.024 -0.03,-0.046 -0.047,-0.069c-0.018,-0.024 -0.037,-0.048 -0.057,-0.07c-0.009,-0.01 -0.016,-0.021 -0.025,-0.031l-0.419,-0.419c0.211,-2.64 2.2,-2.642 2.873,-2.642l20.473,-0c0.673,-0 2.662,0.002 2.873,2.641l-0.419,0.419c-0.008,0.007 -0.013,0.017 -0.02,0.024c-0.025,0.028 -0.049,0.057 -0.07,0.086c-0.012,0.017 -0.023,0.033 -0.034,0.05c-0.02,0.032 -0.036,0.064 -0.052,0.098c-0.008,0.018 -0.016,0.036 -0.022,0.054c-0.013,0.035 -0.022,0.07 -0.031,0.105c-0.004,0.019 -0.009,0.037 -0.012,0.055c-0.006,0.037 -0.009,0.073 -0.011,0.111c0,0.018 -0.001,0.036 0,0.054c0,0.038 0.004,0.074 0.011,0.112c0.003,0.018 0.005,0.036 0.01,0.054c0.008,0.036 0.019,0.071 0.031,0.106c0.007,0.019 0.014,0.038 0.021,0.056c0.015,0.033 0.031,0.063 0.05,0.094c0.012,0.02 0.023,0.039 0.037,0.057c0.01,0.013 0.017,0.028 0.026,0.041c2.967,3.708 9.372,12.962 7.028,21.217l-13.672,-10.714c-1.475,-1.807 -3.646,-2.843 -5.982,-2.843c-4.09,0 -7.446,3.196 -7.706,7.222c-0.101,0.142 -0.162,0.315 -0.162,0.502l0,14.415c-2.015,2.015 -3.263,4.797 -3.263,7.864c0,6.138 4.993,11.131 11.13,11.131c2.435,0 4.689,-0.788 6.523,-2.12l10.439,-4.501c-0.195,0.723 -0.402,1.417 -0.62,2.073c-0.721,2.184 -1.563,3.979 -2.508,5.351Zm10.685,-22.356c-1.021,0.309 -1.937,0.91 -2.625,1.736l-14.496,-11.359c0.217,-0.722 0.327,-1.469 0.327,-2.229c0,-0.478 -0.044,-0.948 -0.128,-1.407l16.922,13.259Zm-15.054,16.276c0.727,-1.172 1.24,-2.488 1.49,-3.895l8.62,-3.717c0.001,0 0.002,0 0.003,-0.001l1.753,-0.756c0.55,0.975 1.382,1.748 2.369,2.23l-14.235,6.139Zm-15.594,-23.43c0.771,1.007 1.79,1.827 2.986,2.36l0,4.545c-1.071,0.316 -2.076,0.788 -2.986,1.392l0,-8.297Zm26.859,13.428l-0.393,0.17c0.14,-1.109 0.264,-2.255 0.37,-3.43l0.295,0.231c-0.245,0.63 -0.374,1.304 -0.374,1.983c0,0.354 0.034,0.703 0.102,1.046Zm-2.252,0.972l-7.348,3.167c-0.008,-6.131 -4.997,-11.115 -11.129,-11.115c-0.476,-0 -0.944,0.033 -1.405,0.092l0,-3.644c0.46,0.084 0.93,0.128 1.405,0.128c2.8,-0 5.316,-1.478 6.684,-3.846l12.387,9.706c-0.155,1.918 -0.354,3.769 -0.594,5.512Zm-13.783,-22.811c0,0.001 0,0.001 0,0c0.846,1.065 1.292,2.349 1.292,3.712c0,0.762 -0.142,1.506 -0.42,2.211c-0.912,2.294 -3.097,3.777 -5.566,3.777c-0.685,0 -1.352,-0.113 -1.985,-0.337c-2.393,-0.842 -4,-3.113 -4,-5.65c0,-3.301 2.685,-5.985 5.985,-5.985c1.84,-0.001 3.55,0.828 4.694,2.272Zm-4.694,16.601c5.179,0 9.392,4.213 9.392,9.392c0,5.178 -4.213,9.392 -9.392,9.392c-5.178,0 -9.392,-4.214 -9.392,-9.392c0,-5.179 4.214,-9.392 9.392,-9.392Zm29.819,4.193c0,1.102 -0.479,2.129 -1.317,2.839l-2,0.862c-0.133,0.015 -0.27,0.025 -0.409,0.025c-1.571,0 -2.982,-0.994 -3.511,-2.472c-0.143,-0.402 -0.216,-0.824 -0.216,-1.255c0,-0.636 0.164,-1.265 0.474,-1.817c0.659,-1.178 1.906,-1.909 3.253,-1.909c0.179,0 0.358,0.014 0.534,0.039c0.017,0.003 0.033,0.007 0.05,0.009c1.174,0.183 2.195,0.926 2.736,1.991c0.269,0.524 0.406,1.091 0.406,1.688Zm9.609,10.474c-0.229,0.458 -1.054,0.711 -2.326,0.711l-18.752,0c0.223,-0.749 0.434,-1.533 0.629,-2.347l7.999,-3.449c0.907,-0.146 1.764,-0.521 2.483,-1.09c0.015,-0.012 0.03,-0.021 0.044,-0.033c1.304,-1.041 2.052,-2.596 2.052,-4.266c0,-0.587 -0.098,-1.171 -0.281,-1.723l7.224,9.363c0.459,0.608 1.292,2.1 0.928,2.834Zm-10.356,-15.053c-0.57,-0.372 -1.212,-0.636 -1.892,-0.772l-2.164,-1.696l1.215,-1.214l2.841,3.682Zm-5.434,-3.549l-2.521,-1.975c2.962,-8.774 -3.271,-18.46 -6.652,-22.836l4.416,-4.416l16.991,16.992l-12.234,12.235Zm13.009,-13.92l-16.082,-16.082l0.694,-0.694l16.081,16.082l-0.693,0.694Zm3.544,-0.302l-1.006,-1.006l-0.001,0l-17.308,-17.308c-0.001,-0.001 -0.001,-0.002 -0.003,-0.003c-0.001,-0.001 -0.002,-0.001 -0.003,-0.003l-1.001,-1.001l0.44,-0.441l19.321,19.321l-0.439,0.441Z" style="fill-rule:nonzero;"/><path d="M46.532,37.064c-0.017,-0.066 -0.035,-0.131 -0.056,-0.196c-0.001,-0.002 -0.002,-0.003 -0.002,-0.005c-0.02,-0.061 -0.041,-0.122 -0.064,-0.182c-0.002,-0.005 -0.004,-0.01 -0.006,-0.016c-0.021,-0.053 -0.043,-0.105 -0.066,-0.157c-0.005,-0.011 -0.01,-0.023 -0.015,-0.035c-0.023,-0.049 -0.048,-0.098 -0.073,-0.146c-0.007,-0.013 -0.013,-0.027 -0.02,-0.04c-0.023,-0.042 -0.049,-0.084 -0.073,-0.125c-0.011,-0.018 -0.021,-0.036 -0.031,-0.053c-0.021,-0.033 -0.043,-0.065 -0.065,-0.098c-0.017,-0.024 -0.031,-0.049 -0.049,-0.072c-0.014,-0.02 -0.029,-0.039 -0.043,-0.058c-0.396,-0.528 -0.942,-0.933 -1.588,-1.153l-0.003,0c-0.342,-0.116 -0.701,-0.175 -1.068,-0.175c-1.832,0 -3.322,1.49 -3.322,3.322c0,1.833 1.49,3.324 3.322,3.324c1.832,0 3.322,-1.491 3.322,-3.324l0,-0.003c0,-0.268 -0.033,-0.538 -0.099,-0.802c0,-0.002 -0.001,-0.004 -0.001,-0.006Zm-3.222,2.397c-0.873,0 -1.583,-0.711 -1.583,-1.585c0,-0.873 0.71,-1.583 1.583,-1.583l0.015,-0c0.17,0.001 0.336,0.029 0.492,0.082c0.002,-0 0.003,0.001 0.004,0.001c0.126,0.043 0.244,0.102 0.354,0.174c0.328,0.217 0.573,0.553 0.671,0.94c0.031,0.128 0.048,0.258 0.048,0.387c-0.001,0.873 -0.711,1.584 -1.584,1.584Z" style="fill-rule:nonzero;"/><path d="M43.31,64.92c2.627,0 4.765,-2.138 4.765,-4.765c0,-2.628 -2.138,-4.765 -4.765,-4.765c-2.627,0 -4.765,2.137 -4.765,4.765c0,2.627 2.137,4.765 4.765,4.765Zm0,-7.791c1.668,0 3.027,1.357 3.027,3.026c0,1.668 -1.358,3.026 -3.027,3.026c-1.669,0 -3.026,-1.358 -3.026,-3.026c-0.001,-1.669 1.357,-3.026 3.026,-3.026Z" style="fill-rule:nonzero;"/><path d="M56.365,74.231l-26.11,0c-1.189,0 -2.157,0.968 -2.157,2.158l0,7.731c0,1.189 0.968,2.157 2.157,2.157l26.11,0c1.189,0 2.157,-0.968 2.157,-2.157l0,-7.731c0,-1.191 -0.968,-2.158 -2.157,-2.158Zm0.419,9.889c0,0.227 -0.192,0.419 -0.419,0.419l-26.11,0c-0.227,0 -0.419,-0.192 -0.419,-0.419l0,-7.731c0,-0.228 0.192,-0.42 0.419,-0.42l26.11,0c0.227,0 0.419,0.192 0.419,0.42l0,7.731Z" style="fill-rule:nonzero;"/><path d="M24.734,7.536l2.245,0l0,4.034c0,2.529 2.532,3.527 3.871,3.702c0.037,0.005 0.075,0.007 0.112,0.007l24.696,-0c0.037,-0 0.075,-0.002 0.112,-0.007c1.339,-0.174 3.871,-1.172 3.871,-3.702l0,-4.034l2.244,0c0.48,0 0.869,-0.389 0.869,-0.869l0,-1.718c0,-0.029 -0.001,-0.058 -0.004,-0.086c-0.102,-1.014 -1.108,-2.93 -4.193,-2.93l-5.274,-0c-0.365,-0.954 -1.285,-1.933 -2.975,-1.933l-13.998,-0c-1.689,-0 -2.609,0.979 -2.974,1.933l-5.274,-0c-3.085,-0 -4.092,1.917 -4.193,2.93c-0.003,0.029 -0.004,0.058 -0.004,0.086l0,1.718c0,0.48 0.389,0.869 0.869,0.869Zm33.169,0l0,0.409l-29.186,-0l0,-0.409l29.186,0Zm-29.186,2.556l0,-0.409l29.186,0l0,0.409l-29.186,0Zm26.876,3.449l-24.567,-0c-0.313,-0.052 -2.079,-0.404 -2.289,-1.71l29.144,-0c-0.208,1.308 -1.966,1.656 -2.288,1.71Zm-29.99,-8.533c0.036,-0.192 0.341,-1.338 2.459,-1.338l5.959,0c0.458,0 0.838,-0.356 0.867,-0.814c0.012,-0.187 0.136,-1.118 1.422,-1.118l13.998,0c1.225,0 1.398,0.865 1.422,1.119c0.029,0.458 0.409,0.814 0.868,0.814l5.959,0c2.099,0 2.418,1.125 2.459,1.34l0,0.787l-35.413,0l0,-0.79Z" style="fill-rule:nonzero;"/></g></g></svg>