<?xml version="1.0" encoding="UTF-8" standalone="no"?><!DOCTYPE svg PUBLIC "-//W3C//DTD SVG 1.1//EN" "http://www.w3.org/Graphics/SVG/1.1/DTD/svg11.dtd"><svg width="100%" height="100%" viewBox="0 0 86 88" version="1.1" xmlns="http://www.w3.org/2000/svg" xmlns:xlink="http://www.w3.org/1999/xlink" xml:space="preserve" xmlns:serif="http://www.serif.com/" style="fill-rule:evenodd;clip-rule:evenodd;stroke-linejoin:round;stroke-miterlimit:2;"><rect id="gas" x="0.768" y="0" width="84.4" height="87.7" style="fill:none;"/><clipPath id="_clip1"><rect x="0.768" y="0" width="84.4" height="87.7"/></clipPath><g clip-path="url(#_clip1)"><g><path d="M84.067,38.882l-5.023,0c-0.629,0 -1.135,0.508 -1.135,1.133l-0,6.879l-3.891,0c-0.625,0 -1.131,0.508 -1.131,1.134l-0,2.92l-18.127,0l-0,-5.804c-0,-0.626 -0.508,-1.133 -1.133,-1.133l-5.355,0l5.291,-9.081c5.115,-3.425 8.494,-9.253 8.494,-15.859c-0,-10.516 -8.559,-19.071 -19.072,-19.071c-10.52,0 -19.074,8.556 -19.074,19.071c-0,6.606 3.377,12.436 8.494,15.859l5.289,9.081l-5.354,0c-0.627,0 -1.135,0.507 -1.135,1.133l-0,5.804l-18.122,0l-0,-2.92c-0,-0.626 -0.51,-1.134 -1.135,-1.134l-3.891,0l-0,-6.879c-0,-0.625 -0.508,-1.133 -1.131,-1.133l-5.023,0c-0.627,0 -1.135,0.508 -1.135,1.133l-0,46.521c-0,0.627 0.508,1.135 1.135,1.135l5.023,0c0.623,0 1.131,-0.508 1.131,-1.135l-0,-6.879l3.891,0c0.625,0 1.135,-0.506 1.135,-1.132l-0,-2.923l19.705,0c2.305,3.946 6.49,6.371 11.094,6.371c4.602,0 8.787,-2.425 11.09,-6.371l17.916,0l-0,2.923c-0,0.626 0.506,1.132 1.131,1.132l3.891,0l-0,6.879c-0,0.627 0.506,1.135 1.135,1.135l5.023,0c0.623,0 1.131,-0.508 1.131,-1.135l-0,-46.521c-0.001,-0.625 -0.509,-1.133 -1.132,-1.133Zm-57.85,-19.026l2.037,0c0.436,0 0.785,-0.351 0.785,-0.785c-0,-0.432 -0.35,-0.783 -0.785,-0.783l-2.037,0c0.4,-8.654 7.367,-15.605 16.029,-15.984l-0,2.03c-0,0.433 0.35,0.783 0.783,0.783c0.433,0 0.785,-0.351 0.785,-0.783l-0,-2.026c8.617,0.425 15.535,7.355 15.936,15.979l-1.98,0c-0.434,0 -0.783,0.352 -0.783,0.783c-0,0.435 0.35,0.785 0.783,0.785l1.98,0c-0.4,8.625 -7.318,15.557 -15.936,15.981l-0,-1.99c-0,-0.434 -0.352,-0.785 -0.785,-0.785c-0.433,0 -0.783,0.352 -0.783,0.785l-0,1.995c-8.661,-0.378 -15.626,-7.329 -16.029,-15.985Zm9.932,17.001c2.125,0.82 4.424,1.288 6.836,1.288c2.41,0 4.707,-0.468 6.832,-1.287l-4.166,7.153l-5.336,0l-4.166,-7.154Zm-2.678,9.42l19.022,0l-0,4.671l-19.022,0l-0,-4.671Zm-27.679,39.129l-2.758,0l-0,-44.258l2.758,0l-0,44.258Zm5.021,-8.014l-2.756,0l-0,-28.23l2.756,0l-0,28.23Zm33.068,2.318c-3.324,0 -6.389,-1.535 -8.373,-4.106l16.742,0c-1.984,2.57 -5.046,4.106 -8.369,4.106Zm29.007,-6.372l-59.805,0l-0,-20.125l59.805,0l-0,20.125Zm2.263,4.054l-0,-28.23l2.758,0l-0,28.23l-2.758,0Zm7.781,8.014l-2.758,0l-0,-44.258l2.758,0l-0,44.258Z" style="fill-rule:nonzero;"/><path d="M42.985,23.075c2.205,0 4.002,-1.795 4.002,-4.004c-0,-1.938 -1.387,-3.558 -3.219,-3.924l-0,-6.48c-0,-0.433 -0.352,-0.784 -0.783,-0.784c-0.436,0 -0.785,0.352 -0.785,0.784l-0,6.48c-1.834,0.366 -3.221,1.986 -3.221,3.924c-0,2.209 1.797,4.004 4.006,4.004Zm-0,-5.74c0.957,0 1.736,0.778 1.736,1.735c-0,0.959 -0.779,1.739 -1.736,1.739c-0.961,0 -1.74,-0.78 -1.74,-1.739c-0,-0.956 0.779,-1.735 1.74,-1.735Z" style="fill-rule:nonzero;"/></g></g></svg>