<?xml version="1.0" encoding="UTF-8" standalone="no"?><!DOCTYPE svg PUBLIC "-//W3C//DTD SVG 1.1//EN" "http://www.w3.org/Graphics/SVG/1.1/DTD/svg11.dtd"><svg width="100%" height="100%" viewBox="0 0 74 80" version="1.1" xmlns="http://www.w3.org/2000/svg" xmlns:xlink="http://www.w3.org/1999/xlink" xml:space="preserve" xmlns:serif="http://www.serif.com/" style="fill-rule:evenodd;clip-rule:evenodd;stroke-linejoin:round;stroke-miterlimit:2;"><rect id="mobil" x="0.071" y="0" width="73.1" height="79.7" style="fill:none;"/><clipPath id="_clip1"><rect x="0.071" y="0" width="73.1" height="79.7"/></clipPath><g clip-path="url(#_clip1)"><g><path d="M66.572,39.465c0.003,5.951 1.481,10.771 3.303,10.771c1.823,-0 3.302,-4.824 3.305,-10.768c-0.003,-5.951 -1.479,-10.773 -3.303,-10.773c-1.824,0.001 -3.308,4.823 -3.305,10.77Z"/><path d="M25.6,3.924c-15.075,6.26 -25.529,19.93 -25.529,35.779c-0.004,15.852 10.454,29.52 25.536,35.777c-8.641,-7.478 -14.381,-20.71 -14.381,-35.776c0,-15.066 5.744,-28.297 14.374,-35.78Z"/><path d="M35.811,-0c-7.066,-0 -12.803,17.854 -12.803,39.857c0,22.016 5.736,39.859 12.808,39.861c3.491,-0.002 6.66,-4.367 8.969,-11.438c1.954,4.756 4.414,7.598 7.084,7.598c6.367,0.002 11.532,-16.066 11.527,-35.883c0.005,-19.816 -5.156,-35.887 -11.521,-35.879c-2.651,0 -5.093,2.797 -7.041,7.484c-2.315,-7.162 -5.501,-11.596 -9.023,-11.6Zm25.876,39.997c0.005,11.121 -2.764,20.143 -6.174,20.143c-3.412,0 -6.176,-9.023 -6.176,-20.139c0,-11.127 2.764,-20.146 6.176,-20.15c3.414,0.003 6.178,9.021 6.174,20.146Zm-17.433,-26.909c-2.395,6.576 -3.907,16.191 -3.907,26.908c-0.001,10.623 1.484,20.166 3.841,26.736c-1.15,1.559 -2.418,2.424 -3.748,2.424c-5.202,-0.004 -9.414,-13.117 -9.414,-29.299c0,-16.174 4.212,-29.293 9.407,-29.293c1.362,0.003 2.655,0.907 3.821,2.524Z"/></g></g></svg>