<?xml version="1.0" encoding="UTF-8" standalone="no"?><!DOCTYPE svg PUBLIC "-//W3C//DTD SVG 1.1//EN" "http://www.w3.org/Graphics/SVG/1.1/DTD/svg11.dtd"><svg width="100%" height="100%" viewBox="0 0 80 61" version="1.1" xmlns="http://www.w3.org/2000/svg" xmlns:xlink="http://www.w3.org/1999/xlink" xml:space="preserve" xmlns:serif="http://www.serif.com/" style="fill-rule:evenodd;clip-rule:evenodd;stroke-linejoin:round;stroke-miterlimit:2;"><rect id="pizza" x="0" y="0" width="79.7" height="60.8" style="fill:none;"/><clipPath id="_clip1"><rect x="0" y="0" width="79.7" height="60.8"/></clipPath><g clip-path="url(#_clip1)"><g><path d="M69.652,13.835c0.223,0.288 0.558,0.438 0.896,0.438c0.243,-0 0.488,-0.078 0.694,-0.238c0.494,-0.384 0.584,-1.096 0.2,-1.59c-0.172,-0.222 -0.35,-0.441 -0.527,-0.658c-0.397,-0.484 -1.111,-0.555 -1.595,-0.158c-0.484,0.397 -0.555,1.111 -0.158,1.595c0.164,0.201 0.329,0.405 0.49,0.611Z" style="fill-rule:nonzero;"/><path d="M31.416,24.603c-6.272,-0 -11.001,2.545 -11.001,5.921c0,3.375 4.729,5.921 11.001,5.921c6.272,-0 11.001,-2.545 11.001,-5.921c0,-2.243 -2.118,-4.191 -5.665,-5.211c-0.601,-0.173 -1.23,0.175 -1.402,0.776c-0.173,0.601 0.175,1.229 0.776,1.402c2.407,0.692 4.024,1.911 4.024,3.032c0,1.725 -3.735,3.654 -8.734,3.654c-4.999,-0 -8.734,-1.929 -8.734,-3.654c0,-1.725 3.735,-3.654 8.734,-3.654c0.626,-0 1.133,-0.507 1.133,-1.133c0,-0.626 -0.507,-1.133 -1.133,-1.133Z" style="fill-rule:nonzero;"/><path d="M26.413,30.523c0,0.626 0.507,1.133 1.133,1.133c0.576,-0 1.051,-0.429 1.124,-0.985c0.231,-0.212 1.088,-0.562 2.357,-0.562c1.269,-0 2.126,0.349 2.357,0.562c0.073,0.556 0.548,0.985 1.124,0.985c0.626,-0 1.133,-0.507 1.133,-1.133c0,-1.578 -1.897,-2.68 -4.614,-2.68c-2.717,-0 -4.614,1.102 -4.614,2.68Z" style="fill-rule:nonzero;"/><path d="M76.666,50.519c1.602,-3.809 3.588,-13.289 2.963,-17.609c-0.949,-6.568 -2.785,-12.042 -5.614,-16.736c-0.323,-0.536 -1.02,-0.709 -1.556,-0.386c-0.536,0.323 -0.709,1.02 -0.386,1.556c2.67,4.429 4.407,9.627 5.312,15.89c0.373,2.582 -0.433,8.078 -1.52,12.348c-0.194,-0.352 -0.416,-0.691 -0.669,-1.015c-1.1,-1.416 -5.01,-3.673 -9.307,-2.522c0.028,-0.079 0.057,-0.159 0.083,-0.238c0.662,-1.953 1.087,-3.965 1.263,-5.975c0.063,-0.708 0.095,-1.442 0.095,-2.182c0,-5.752 -1.946,-11.295 -5.783,-16.473c-2.527,-3.406 -5.824,-6.57 -9.799,-9.405c-0.776,-0.552 -1.572,-1.088 -2.377,-1.602c1.252,-1.604 3.887,-3.418 5.735,-3.824c0.653,-0.143 1.03,-0.072 1.165,0.043c0.021,0.018 0.045,0.03 0.067,0.046c0.022,0.016 0.041,0.036 0.065,0.051c3.972,2.492 7.193,4.969 9.848,7.571c0.221,0.216 0.507,0.324 0.793,0.324c0.294,-0 0.588,-0.114 0.81,-0.34c0.438,-0.447 0.431,-1.165 -0.016,-1.603c-2.76,-2.705 -6.089,-5.269 -10.174,-7.837c-0.534,-0.42 -1.48,-0.813 -3.045,-0.47c-2.852,0.627 -6.558,3.394 -7.759,5.765c-2.689,2.985 -10.861,6.775 -19.506,10.785c-1.04,0.482 -2.088,0.968 -3.137,1.458c-2.535,1.184 -5.499,2.583 -8.267,3.979c-0.559,0.282 -0.783,0.964 -0.501,1.522c0.199,0.395 0.598,0.623 1.013,0.623c0.172,-0 0.346,-0.039 0.51,-0.122c2.74,-1.383 5.685,-2.773 8.204,-3.949c1.047,-0.489 2.094,-0.974 3.131,-1.455c8.717,-4.043 16.326,-7.573 19.683,-10.76c0.749,0.475 1.49,0.971 2.215,1.482c0.263,0.563 0.396,1.14 0.396,1.718c0,4.576 -8.16,8.442 -17.818,8.442c-0.5,-0 -1.004,-0.01 -1.497,-0.03c-0.626,-0.03 -1.153,0.461 -1.178,1.086c-0.025,0.625 0.461,1.153 1.086,1.178c0.524,0.021 1.059,0.032 1.589,0.032c11.084,-0 19.798,-4.557 20.072,-10.425c2.71,2.197 5.016,4.565 6.87,7.064c3.542,4.779 5.337,9.867 5.337,15.123c0,0.37 -0.011,0.736 -0.028,1.099c-0.581,0.072 -1.173,0.112 -1.77,0.112c-5.948,-0 -10.787,-3.611 -10.787,-8.049c0,-2.22 1.196,-4.291 3.368,-5.833c0.51,-0.362 0.63,-1.07 0.268,-1.58c-0.362,-0.51 -1.07,-0.63 -1.58,-0.268c-2.747,1.95 -4.323,4.75 -4.323,7.681c0,5.688 5.856,10.316 13.054,10.316c0.517,-0 1.031,-0.024 1.54,-0.071c-0.205,1.355 -0.534,2.703 -0.981,4.024c-0.178,0.528 -0.379,1.061 -0.598,1.588c-5.198,-0.752 -11.066,-1.351 -16.662,-1.902c-2.154,-0.213 -4.174,1.062 -4.909,3.098c-0.169,0.465 -0.254,0.948 -0.254,1.435c0,0.767 0.21,1.526 0.607,2.189c0.246,0.416 0.373,0.891 0.366,1.373c-0.005,0.31 -0.068,0.616 -0.186,0.908c-0.393,0.96 -1.301,1.607 -2.314,1.648c-1.351,0.055 -2.506,-0.911 -2.683,-2.248c0,-0.002 -0.001,-0.003 -0.001,-0.005l0,-0.006c-0.016,-0.111 -0.024,-0.226 -0.024,-0.341c0,-0.102 0.041,-0.495 0.575,-1.281c0.813,-1.198 1.128,-2.622 0.887,-4.011l-0.007,-0.045c-0.001,-0.01 -0.003,-0.02 -0.005,-0.03c-0.363,-2.065 -2.07,-3.66 -4.153,-3.884c-0.021,-0.003 -0.041,-0.005 -0.063,-0.006c-0.004,-0 -0.007,-0.001 -0.01,-0.001c-2.313,-0.238 -4.438,1.212 -5.052,3.452l-0.164,0.596c-0.411,1.498 -0.57,3.076 -0.472,4.689c0,0.003 0.001,0.005 0.001,0.008c0.094,1.512 0.411,3.037 0.945,4.534c0.212,0.593 0.286,1.226 0.222,1.877c-0.203,1.961 -1.769,3.542 -3.724,3.761c-1.229,0.137 -2.406,-0.234 -3.317,-1.049c-0.9,-0.805 -1.417,-1.958 -1.417,-3.164c0,-0.829 0.151,-1.597 0.436,-2.221c0.79,-1.729 1.261,-3.493 1.401,-5.242c0.059,-0.716 0.06,-1.435 0.003,-2.136l-0.126,-1.551c-0.002,-0.019 -0.004,-0.038 -0.006,-0.057c-0.384,-2.899 -2.585,-5.18 -5.476,-5.675c-6.707,-1.149 -11.564,-2.489 -14.779,-4.08c1.89,-2.086 5.26,-4.433 10.24,-7.137c0.55,-0.299 0.754,-0.987 0.455,-1.537c-0.299,-0.55 -0.987,-0.754 -1.537,-0.455c-6.192,3.363 -9.948,6.167 -11.82,8.826c-0.017,0.025 -0.029,0.053 -0.044,0.079c-0.019,0.032 -0.039,0.063 -0.054,0.097c-0.016,0.034 -0.028,0.07 -0.04,0.105c-0.013,0.036 -0.025,0.072 -0.034,0.109c-0.009,0.036 -0.013,0.073 -0.019,0.11c-0.005,0.038 -0.01,0.076 -0.011,0.115c-0.001,0.039 0.001,0.078 0.004,0.117c0.002,0.025 -0.001,0.049 0.002,0.073l0.976,7.231c0.024,0.182 0.093,0.354 0.198,0.504c0.464,0.654 1.429,2.016 15.711,5.208c0.083,0.019 0.166,0.028 0.248,0.028c0.519,-0 0.987,-0.359 1.105,-0.886c0.137,-0.611 -0.248,-1.217 -0.859,-1.353c-11.024,-2.464 -13.616,-3.759 -14.209,-4.182l-0.634,-4.698c3.407,1.551 8.252,2.855 14.717,3.962c1.898,0.325 3.345,1.815 3.608,3.712l0.123,1.521c0.047,0.579 0.046,1.174 -0.003,1.77c-0.119,1.487 -0.523,2.995 -1.203,4.482c-0.426,0.931 -0.642,1.995 -0.642,3.164c0,1.851 0.792,3.62 2.173,4.854c1.196,1.069 2.748,1.653 4.346,1.653c0.244,-0 0.489,-0.014 0.734,-0.041c3.006,-0.336 5.414,-2.767 5.727,-5.785c0.098,-0.992 -0.017,-1.957 -0.342,-2.868c-0.463,-1.297 -0.738,-2.615 -0.818,-3.917c0,-0.002 -0.001,-0.004 -0.001,-0.006c-0.082,-1.362 0.051,-2.69 0.395,-3.944l0.165,-0.597c0.319,-1.164 1.42,-1.921 2.621,-1.8c0.02,0.002 0.039,0.004 0.059,0.006c0.003,-0 0.006,0.001 0.01,0.001c1.084,0.113 1.973,0.939 2.168,2.01l0.006,0.042c0.001,0.01 0.003,0.02 0.005,0.029c0.143,0.811 -0.045,1.65 -0.527,2.361c-0.642,0.944 -0.967,1.803 -0.967,2.554c0,0.217 0.015,0.433 0.045,0.645l0,0.006c0,0.002 0.001,0.004 0.001,0.006l0,0.004c0,0.002 0.001,0.003 0.001,0.005c0.33,2.43 2.378,4.204 4.813,4.204c0.069,-0 0.138,-0.001 0.207,-0.004c1.866,-0.076 3.538,-1.238 4.284,-2.97c0.033,-0.065 0.059,-0.135 0.079,-0.207c0.195,-0.518 0.302,-1.057 0.311,-1.61c0.013,-0.902 -0.223,-1.788 -0.684,-2.566c-0.189,-0.316 -0.288,-0.672 -0.288,-1.031c0,-0.222 0.04,-0.445 0.119,-0.663c0.383,-1.061 1.433,-1.726 2.555,-1.614c5.977,0.588 12.265,1.232 17.679,2.055c0.25,0.038 0.507,-0.009 0.727,-0.133c4.387,-2.474 8.261,0.502 8.659,1.015c0.678,0.87 1.059,1.888 1.132,3.026c0.103,1.621 -0.906,3.051 -2.4,3.587c-0.112,-0.58 -0.077,-1.218 0.109,-1.843c0.174,-0.584 0.335,-1.083 0.481,-1.483c0.092,-0.252 0.091,-0.529 -0.002,-0.78c-0.542,-1.466 -2.682,-2.658 -4.769,-2.658c-1.569,-0 -2.925,0.666 -3.817,1.874c-0.185,0.251 -0.259,0.567 -0.204,0.874l0.24,1.331c0.11,0.608 0.076,1.222 -0.087,1.79l-0.793,-0.123c-4.523,-0.702 -10.153,-1.575 -15.536,-2.214c-0.622,-0.074 -1.185,0.37 -1.259,0.992c-0.074,0.622 0.37,1.185 0.992,1.259c5.342,0.634 10.95,1.504 15.455,2.203l0.344,0.053c-0.084,0.488 -0.089,0.992 -0.014,1.497c0.309,2.077 1.986,3.69 4.078,3.922c0.175,0.019 0.353,0.029 0.529,0.029c1.245,-0 2.415,-0.485 3.295,-1.365c0.834,-0.835 1.308,-1.931 1.355,-3.103c2.089,-0.593 3.66,-2.254 4.133,-4.307Zm-7.087,5.81c-0.517,0.517 -1.232,0.768 -1.97,0.685c-1.053,-0.117 -1.93,-0.959 -2.086,-2.003c-0.079,-0.532 0.011,-1.055 0.261,-1.513c0.654,-1.198 0.876,-2.623 0.625,-4.013l-0.143,-0.795c0.439,-0.409 1.006,-0.616 1.693,-0.616c1.107,-0 2.059,0.531 2.458,0.925c-0.108,0.325 -0.222,0.687 -0.34,1.084c-0.381,1.282 -0.36,2.576 0.061,3.74c0.094,0.26 0.142,0.533 0.142,0.813c0,0.64 -0.249,1.241 -0.701,1.693Z" style="fill-rule:nonzero;"/></g></g></svg>